<mxfile host="app.diagrams.net" modified="2023-12-01T09:42:00.163Z" agent="Mozilla/5.0 (Windows NT 10.0; Win64; x64) AppleWebKit/537.36 (KHTML, like Gecko) Chrome/119.0.0.0 Safari/537.36 Edg/119.0.0.0" etag="lBgXxfpDlKw4x1ZtU3wG" version="22.1.5" type="github">
  <diagram name="第 1 页" id="fRalbSW7F7ppp1aA-SW7">
    <mxGraphModel dx="1188" dy="661" grid="1" gridSize="10" guides="1" tooltips="1" connect="1" arrows="1" fold="1" page="1" pageScale="1" pageWidth="827" pageHeight="1169" math="0" shadow="0">
      <root>
        <mxCell id="0" />
        <mxCell id="1" parent="0" />
        <mxCell id="fvuuTwJdQ1THSgEnotJP-1" value="vpc-2zeay60jtiw396r4zox2a" style="swimlane;whiteSpace=wrap;html=1;" vertex="1" parent="1">
          <mxGeometry x="50" y="130" width="550" height="500" as="geometry">
            <mxRectangle x="50" y="130" width="200" height="30" as="alternateBounds" />
          </mxGeometry>
        </mxCell>
        <mxCell id="fvuuTwJdQ1THSgEnotJP-6" value="&lt;div style=&quot;border-color: var(--border-color); font-size: 11px;&quot;&gt;&lt;font style=&quot;font-size: 11px;&quot;&gt;vsw-2ze2w1ahisqxkpemsw9aj&lt;/font&gt;&lt;/div&gt;&lt;span style=&quot;border-color: var(--border-color); box-sizing: border-box; visibility: visible; display: inline; outline: none; cursor: pointer; font-size: 11px;&quot; class=&quot;sc-cMljjf kXKkpg&quot; aria-label=&quot;编辑&quot; tabindex=&quot;0&quot; role=&quot;button&quot;&gt;&lt;font style=&quot;font-size: 11px;&quot;&gt;&lt;div style=&quot;border-color: var(--border-color);&quot;&gt;&lt;span style=&quot;border-color: var(--border-color);&quot;&gt;client-service-sw-vlan2107&lt;/span&gt;&lt;/div&gt;&lt;div style=&quot;border-color: var(--border-color);&quot;&gt;10.101.7.0/24&lt;/div&gt;&lt;/font&gt;&lt;/span&gt;" style="sketch=0;pointerEvents=1;shadow=0;dashed=0;html=1;strokeColor=none;fillColor=#434445;aspect=fixed;labelPosition=center;verticalLabelPosition=bottom;verticalAlign=top;align=left;outlineConnect=0;shape=mxgraph.vvd.virtual_switch;" vertex="1" parent="fvuuTwJdQ1THSgEnotJP-1">
          <mxGeometry x="240" y="90" width="50" height="26.5" as="geometry" />
        </mxCell>
        <mxCell id="fvuuTwJdQ1THSgEnotJP-7" value="&lt;font style=&quot;font-size: 11px;&quot;&gt;i-2ze7bah5l7xfcmacppvt&lt;br style=&quot;border-color: var(--border-color);&quot;&gt;cs-awu-sh-20230711&lt;br&gt;&lt;/font&gt;&lt;div style=&quot;box-sizing: border-box; overscroll-behavior-x: none; font-size: 11px;&quot;&gt;&lt;font style=&quot;font-size: 11px;&quot;&gt;&lt;div class=&quot;ecs-core-space ecs-core-space-horizontal ecs-core-space-align-center&quot; style=&quot;box-sizing: border-box; overscroll-behavior-x: none; display: inline-flex; align-items: center; gap: 8px;&quot;&gt;&lt;div class=&quot;ecs-core-space-item&quot; style=&quot;box-sizing: border-box; overscroll-behavior-x: none;&quot;&gt;1核(vCPU) 2 GiB&lt;/div&gt;&lt;/div&gt;&lt;span style=&quot;box-sizing: border-box; overscroll-behavior-x: none; margin-left: 4px;&quot;&gt;&lt;span style=&quot;box-sizing: border-box; overscroll-behavior-x: none;&quot;&gt;1 Mbps&lt;/span&gt;&lt;/span&gt;&lt;/font&gt;&lt;/div&gt;&lt;div data-spm-anchor-id=&quot;5176.ecscore_server.0.i2.350c4df5aQxkm9&quot; style=&quot;box-sizing: border-box; overscroll-behavior-x: none; font-size: 11px;&quot;&gt;&lt;font style=&quot;font-size: 11px;&quot;&gt;ecs.s6-c1m2.small&lt;/font&gt;&lt;/div&gt;&lt;div data-spm-anchor-id=&quot;5176.ecscore_server.0.i2.350c4df5aQxkm9&quot; style=&quot;box-sizing: border-box; overscroll-behavior-x: none; font-size: 11px;&quot;&gt;&lt;font style=&quot;font-size: 11px;&quot;&gt;59.110.53.216&lt;br&gt;&lt;/font&gt;&lt;/div&gt;&lt;div data-spm-anchor-id=&quot;5176.ecscore_server.0.i2.350c4df5aQxkm9&quot; style=&quot;box-sizing: border-box; overscroll-behavior-x: none; font-size: 11px;&quot;&gt;&lt;font style=&quot;font-size: 11px;&quot;&gt;10.101.7.101&lt;/font&gt;&lt;/div&gt;" style="sketch=0;pointerEvents=1;shadow=0;dashed=0;html=1;strokeColor=none;fillColor=#434445;aspect=fixed;labelPosition=center;verticalLabelPosition=bottom;verticalAlign=top;align=left;outlineConnect=0;shape=mxgraph.vvd.server;" vertex="1" parent="fvuuTwJdQ1THSgEnotJP-1">
          <mxGeometry x="350" y="190" width="50" height="13" as="geometry" />
        </mxCell>
        <mxCell id="fvuuTwJdQ1THSgEnotJP-8" value="&lt;font style=&quot;font-size: 11px;&quot;&gt;i-2zeaqi1uru62qw8cojzo&lt;br style=&quot;border-color: var(--border-color);&quot;&gt;&lt;/font&gt;&lt;div style=&quot;font-size: 11px;&quot;&gt;&lt;font style=&quot;font-size: 11px;&quot;&gt;cs-awu-gz-20230711&lt;/font&gt;&lt;/div&gt;&lt;div style=&quot;font-size: 11px;&quot;&gt;&lt;font style=&quot;font-size: 11px;&quot;&gt;1核(vCPU) 2 GiB 1 Mbps&lt;/font&gt;&lt;/div&gt;&lt;div style=&quot;font-size: 11px;&quot;&gt;&lt;font style=&quot;font-size: 11px;&quot;&gt;ecs.s6-c1m2.small&lt;br&gt;&lt;/font&gt;&lt;/div&gt;&lt;div style=&quot;font-size: 11px;&quot;&gt;&lt;font style=&quot;font-size: 11px;&quot;&gt;47.93.14.123&lt;br&gt;&lt;/font&gt;&lt;/div&gt;&lt;div style=&quot;font-size: 11px;&quot;&gt;&lt;font style=&quot;font-size: 11px;&quot;&gt;10.101.7.102&lt;/font&gt;&lt;br&gt;&lt;/div&gt;" style="sketch=0;pointerEvents=1;shadow=0;dashed=0;html=1;strokeColor=none;fillColor=#434445;aspect=fixed;labelPosition=center;verticalLabelPosition=bottom;verticalAlign=top;align=left;outlineConnect=0;shape=mxgraph.vvd.server;" vertex="1" parent="fvuuTwJdQ1THSgEnotJP-1">
          <mxGeometry x="350" y="330" width="50" height="13" as="geometry" />
        </mxCell>
      </root>
    </mxGraphModel>
  </diagram>
</mxfile>
